<mxfile host="www.draw.io" modified="2023-11-28T21:20:00.317Z" agent="Mozilla/5.0 (Windows NT 10.0; Win64; x64) AppleWebKit/537.36 (KHTML, like Gecko) Chrome/119.0.0.0 Safari/537.36" etag="fOdF_Y-Zx4sjU6iKxi3X" version="22.1.4" type="device">
  <diagram name="Page-1" id="osTN_kwB6Sf5BF0mthEJ">
    <mxGraphModel dx="1120" dy="446" grid="1" gridSize="10" guides="1" tooltips="1" connect="1" arrows="1" fold="1" page="1" pageScale="1" pageWidth="1169" pageHeight="827" math="0" shadow="0">
      <root>
        <mxCell id="0" />
        <mxCell id="1" parent="0" />
        <mxCell id="XCJrzp900LSDwMVcCKCK-5" value="SERVIDOR" style="whiteSpace=wrap;html=1;aspect=fixed;" vertex="1" parent="1">
          <mxGeometry x="705" y="140" width="290" height="290" as="geometry" />
        </mxCell>
        <mxCell id="XCJrzp900LSDwMVcCKCK-4" value="frontController" style="ellipse;whiteSpace=wrap;html=1;aspect=fixed;" vertex="1" parent="1">
          <mxGeometry x="800" y="310" width="95" height="95" as="geometry" />
        </mxCell>
        <mxCell id="XCJrzp900LSDwMVcCKCK-6" value="pagina" style="rounded=0;whiteSpace=wrap;html=1;" vertex="1" parent="1">
          <mxGeometry x="320" y="180" width="120" height="190" as="geometry" />
        </mxCell>
        <mxCell id="XCJrzp900LSDwMVcCKCK-7" value="" style="endArrow=classic;html=1;rounded=0;exitX=1;exitY=0.5;exitDx=0;exitDy=0;" edge="1" parent="1" source="XCJrzp900LSDwMVcCKCK-6">
          <mxGeometry width="50" height="50" relative="1" as="geometry">
            <mxPoint x="630" y="329.99999999999994" as="sourcePoint" />
            <mxPoint x="800" y="351.08" as="targetPoint" />
          </mxGeometry>
        </mxCell>
      </root>
    </mxGraphModel>
  </diagram>
</mxfile>
